Coordinates
version=1
nRows=17
nColumns=40
inDegrees=yes

Units are S.I. units (second, meters, Newtons, ...)
Angles are in degrees.

endheader
time	pelvis_tilt	pelvis_list	pelvis_rotation	pelvis_tx	pelvis_ty	pelvis_tz	hip_flexion_r	hip_adduction_r	hip_rotation_r	knee_angle_r	knee_angle_r_beta	ankle_angle_r	subtalar_angle_r	mtp_angle_r	hip_flexion_l	hip_adduction_l	hip_rotation_l	knee_angle_l	knee_angle_l_beta	ankle_angle_l	subtalar_angle_l	mtp_angle_l	lumbar_extension	lumbar_bending	lumbar_rotation	arm_flex_r	arm_add_r	arm_rot_r	elbow_flex_r	pro_sup_r	wrist_flex_r	wrist_dev_r	arm_flex_l	arm_add_l	arm_rot_l	elbow_flex_l	pro_sup_l	wrist_flex_l	wrist_dev_l
     11.46000000	     -6.46941798	     -5.46797670	      1.63362210	      1.00590829	      0.92018345	      0.45092281	      1.90956506	     -1.70638639	    -15.56185385	     29.11218936	     29.11218936	     13.89885650	      3.93284818	    -11.15611174	     29.45718954	     -5.59780520	      0.07607880	     26.86393819	     26.86393819	      7.08717047	    -14.99320997	      7.97765009	     -9.05707361	      4.79901636	      4.57212241	     46.92089386	    -14.70729551	      2.42035385	    107.95508244	     44.32593025	      0.00000000	      0.00000000	    -14.60065232	     -6.97167744	      4.81031033	     29.58862671	     44.35527588	      0.00000000	      0.00000000
     11.47171429	     -6.51694874	     -5.39904192	      1.44724347	      1.00556602	      0.92102195	      0.44818099	      3.37260386	     -2.47984125	    -15.02267422	     32.44570752	     32.44570752	     12.33390604	      2.44128499	    -12.35329364	     28.84356642	     -5.45939177	     -0.25339928	     26.79569180	     26.79569180	      7.68106625	    -14.90986342	      7.83864490	     -9.04371173	      4.82540246	      4.55047923	     45.44008055	    -15.33702760	      1.90548427	    107.44532799	     44.35910554	      0.00000000	      0.00000000	    -13.58709547	     -7.18019469	      4.63202447	     30.33370145	     44.40842432	      0.00000000	      0.00000000
     11.48342857	     -6.50794954	     -5.30791885	      1.24693633	      1.00508968	      0.92174769	      0.44562552	      4.98120034	     -3.22873945	    -14.31139658	     36.02594675	     36.02594675	     10.52314041	      0.62400361	    -13.34430222	     28.19833596	     -5.31905664	     -0.58023245	     26.77357937	     26.77357937	      8.25086660	    -14.76304804	      7.61122992	     -9.12834300	      4.82209898	      4.54005041	     43.84931359	    -15.88041446	      1.37417936	    106.74673439	     44.39747495	      0.00000000	      0.00000000	    -12.52074941	     -7.42939708	      4.39501863	     31.18205711	     44.46904460	      0.00000000	      0.00000000
     11.49514286	     -6.53940246	     -5.41226474	      1.04435418	      1.00448885	      0.92227195	      0.44349390	      6.65710922	     -3.49262900	    -13.26290645	     39.26193118	     39.26193118	      7.18343620	     -2.95273945	    -17.55451511	     27.62881024	     -5.43031478	     -0.92380909	     26.75996276	     26.75996276	      8.81606803	    -14.41018392	      7.17099760	     -9.17058897	      4.95171528	      4.97288163	     41.65296681	    -16.36640362	     -0.81561139	    106.49147740	     44.50854677	      0.00000000	      0.00000000	    -11.75324456	     -7.73825687	      3.32386602	     33.43257005	     44.71647688	      0.00000000	      0.00000000
     11.50685714	     -6.48425388	     -5.27157983	      0.81642464	      1.00363904	      0.92270118	      0.44125870	      8.58910030	     -4.22136218	    -12.55248729	     43.21123637	     43.21123637	      5.35592070	     -4.91705279	    -17.34432158	     26.95960075	     -5.27576940	     -1.34203228	     26.74104807	     26.74104807	      9.30289645	    -14.24520162	      6.85038383	     -9.32591513	      4.87864653	      4.77635745	     40.13172995	    -16.78623718	     -0.91470772	    105.21590410	     44.55035400	      0.00000000	      0.00000000	    -10.57086210	     -8.06741726	      3.08988134	     34.08826555	     44.77614656	      0.00000000	      0.00000000
     11.51857143	     -6.48598810	     -5.30888770	      0.60066379	      1.00259557	      0.92298021	      0.43939508	     10.70149623	     -4.47003240	    -11.53688305	     47.07484614	     47.07484614	      3.52635431	     -7.70916679	    -16.13611879	     26.42921256	     -5.34793993	     -1.75010394	     26.79873790	     26.79873790	      9.74383231	    -13.92530210	      6.31748221	     -9.34921004	      4.98566995	      4.80149190	     38.41063710	    -17.18741854	     -1.65915932	    103.29403599	     44.63674587	      0.00000000	      0.00000000	     -9.44121515	     -8.39988614	      2.55279157	     35.32635911	     44.88539948	      0.00000000	      0.00000000
     11.53028571	     -6.44657862	     -5.21126731	      0.38711970	      1.00140460	      0.92323973	      0.43758120	     12.84653862	     -4.89888777	    -10.75471561	     50.89705294	     50.89705294	      1.95287804	     -9.89670033	    -14.53018744	     25.82174886	     -5.28696536	     -2.23939743	     26.79484280	     26.79484280	     10.17590693	    -13.57734840	      5.78657372	     -9.48339445	      4.92885208	      4.66623062	     36.69360856	    -17.33544609	     -2.32074180	    101.46955168	     44.71560102	      0.00000000	      0.00000000	     -8.27775076	     -8.76904652	      1.97829721	     36.59826929	     44.99529992	      0.00000000	      0.00000000
     11.54200000	     -6.32848466	     -5.10165222	      0.18096246	      1.00016061	      0.92354186	      0.43591935	     15.05933898	     -5.31248558	    -10.05684509	     54.84809318	     54.84809318	      1.91879224	    -10.84600978	     -9.15549987	     25.11621020	     -5.23743317	     -2.77710974	     26.75365281	     26.75365281	     10.46863051	    -13.15712547	      4.69548728	     -9.70262167	      4.82571776	      4.15381613	     35.24332108	    -16.65821015	     -3.49474648	     98.97883908	     44.85151526	      0.00000000	      0.00000000	     -7.66217305	     -9.09055069	      0.19898449	     38.96628082	     45.30416009	      0.00000000	      0.00000000
     11.55371429	     -6.25328559	     -4.97624614	     -0.02298440	      0.99875092	      0.92390827	      0.43431579	     17.25154733	     -5.65299542	     -9.42618922	     58.30600475	     58.30600475	      1.40202692	    -12.17881428	     -5.77749653	     24.43201545	     -5.15450114	     -3.29390075	     26.64724400	     26.64724400	     10.86214262	    -12.73187174	      4.12380734	     -9.86611873	      4.73818008	      3.88035765	     33.65983242	    -16.60578355	     -3.96975494	     96.53042128	     44.95639117	      0.00000000	      0.00000000	     -6.37610759	     -9.40115431	     -0.86315130	     40.16654470	     45.51255275	      0.00000000	      0.00000000
     11.56542857	     -6.19217453	     -4.77505359	     -0.21816919	      0.99724073	      0.92436594	      0.43275645	     19.35400007	     -6.03281752	     -8.88533529	     61.23526565	     61.23526565	      0.29699340	    -13.74428205	     -5.10318386	     23.70926673	     -4.94444835	     -3.71336130	     26.42473093	     26.42473093	     11.26722995	    -12.48075781	      3.91127064	    -10.03981913	      4.60134954	      3.73937339	     31.74869778	    -16.86091902	     -4.06364396	     94.84085343	     45.00705081	      0.00000000	      0.00000000	     -4.83377008	     -9.86379612	     -1.16820056	     41.05890744	     45.57752417	      0.00000000	      0.00000000
     11.57714286	     -6.13020546	     -4.67570498	     -0.41226595	      0.99564876	      0.92501763	      0.43138204	     21.40870014	     -6.22516006	     -8.44013318	     63.77927123	     63.77927123	     -0.35876278	    -14.96673592	     -3.96829632	     22.97087875	     -4.87625417	     -4.20386910	     26.15380060	     26.15380060	     11.62659150	    -11.99523757	      3.60641085	    -10.17870109	      4.54960496	      3.81415375	     29.86172772	    -17.09129246	     -4.72461198	     92.31666480	     45.10273091	      0.00000000	      0.00000000	     -3.20598066	    -10.26507244	     -1.57570069	     42.32231220	     45.65957552	      0.00000000	      0.00000000
     11.58885714	     -6.00633448	     -4.62155477	     -0.57475686	      0.99405486	      0.92582413	      0.43023324	     23.37303594	     -6.37690135	     -8.17692904	     66.05424866	     66.05424866	      0.05763511	    -15.31574801	     -1.04717234	     22.13079533	     -4.87099439	     -4.71545181	     25.81752041	     25.81752041	     11.97829040	    -11.41097683	      2.99044995	    -10.39395137	      4.48018788	      3.37743832	     28.46321319	    -16.13548621	     -6.24915175	     88.91169262	     45.25540852	      0.00000000	      0.00000000	     -1.99910560	    -10.76915675	     -2.32583430	     44.18411018	     45.80288472	      0.00000000	      0.00000000
     11.60057143	     -5.96143992	     -4.46865906	     -0.76260797	      0.99239992	      0.92669620	      0.42908352	     25.30056435	     -6.60996479	     -7.92461962	     67.74575704	     67.74575704	     -0.16237571	    -15.79399505	     -0.72202350	     21.27465617	     -4.69601066	     -5.11959156	     25.27851996	     25.27851996	     12.27057445	    -11.05692828	      2.85843568	    -10.55549129	      4.37464438	      3.34759626	     26.43239192	    -16.40362149	     -6.27401818	     86.96345989	     45.30961042	      0.00000000	      0.00000000	     -0.29699515	    -11.21091679	     -2.66240558	     45.29278562	     45.87170033	      0.00000000	      0.00000000
     11.61228571	     -5.85687168	     -4.43223927	     -0.92942623	      0.99073404	      0.92777061	      0.42812588	     27.03958982	     -6.68941628	     -7.80824484	     68.94326158	     68.94326158	     -0.08998402	    -15.91749646	     -0.27200153	     20.34751843	     -4.65736282	     -5.52153181	     24.71761871	     24.71761871	     12.52717524	    -10.61786779	      2.58630914	    -10.78676119	      4.36257377	      3.42871174	     24.58709143	    -16.45196702	     -6.90037969	     84.11043614	     45.41194330	      0.00000000	      0.00000000	      1.44010291	    -11.60363014	     -3.04223366	     46.78195355	     45.95407211	      0.00000000	      0.00000000
     11.62400000	     -5.80634020	     -4.48703050	     -1.01615836	      0.98898930	      0.92877414	      0.42732628	     28.69202460	     -6.66672140	     -7.86597871	     69.62554177	     69.62554177	     -0.08619754	    -15.94328712	     -0.31287260	     19.51526694	     -4.66961137	     -5.72822942	     24.18037593	     24.18037593	     12.84021389	    -10.37270357	      2.50152199	    -10.98023486	      4.50225375	      2.92661107	     22.63200006	    -16.06128893	     -6.77896602	     82.75062489	     45.44247339	      0.00000000	      0.00000000	      3.17530549	    -12.29052955	     -3.30695083	     47.69051386	     46.00842893	      0.00000000	      0.00000000
     11.63571429	     -5.76281547	     -4.34000797	     -1.28130679	      0.98730466	      0.92991499	      0.42667797	     30.33040468	     -6.72986674	     -7.61290578	     69.90978964	     69.90978964	      0.06717084	    -15.56284179	     -0.26108196	     18.45694012	     -4.52023396	     -6.25987271	     23.27091729	     23.27091729	     12.93925331	     -9.77310957	      2.24045334	    -11.12553901	      4.32500486	      3.55693013	     20.69568228	    -16.53737739	     -7.69779192	     78.89363373	     45.58656494	      0.00000000	      0.00000000	      4.90666073	    -12.41306625	     -3.63299176	     49.69631110	     46.08796014	      0.00000000	      0.00000000
     11.64742857	     -5.71294508	     -4.38169053	     -1.44324509	      0.98563362	      0.93097820	      0.42619458	     31.74609175	     -6.63729078	     -7.65512691	     69.64533730	     69.64533730	      0.19040284	    -15.11744764	     -0.23103024	     17.49812663	     -4.53920475	     -6.56755978	     22.51590127	     22.51590127	     13.03664294	     -9.40662058	      1.75603334	    -11.27408785	      4.37651244	      3.36115425	     19.13059703	    -16.05932234	     -8.49638707	     75.21354612	     45.71810039	      0.00000000	      0.00000000	      6.27411280	    -12.90311448	     -3.90516990	     51.71582003	     46.16707826	      0.00000000	      0.00000000
